<svg xmlns="http://www.w3.org/2000/svg" xmlns:xlink="http://www.w3.org/1999/xlink" width="360" height="129.416" viewBox="0 0 360 129.416">
  <defs>
    <linearGradient id="linear-gradient" x1="0.5" y1="-0.487" x2="0.5" y2="0.893" gradientUnits="objectBoundingBox">
      <stop offset="0" stop-color="#0f007d"/>
      <stop offset="1" stop-color="#191753"/>
    </linearGradient>
    <linearGradient id="linear-gradient-2" x1="0.5" y1="-0.487" x2="0.5" y2="0.893" gradientUnits="objectBoundingBox">
      <stop offset="0" stop-color="#261a81"/>
      <stop offset="1" stop-color="#191753"/>
    </linearGradient>
    <linearGradient id="linear-gradient-3" x1="-0.752" y1="0.86" x2="0.506" y2="0.516" gradientUnits="objectBoundingBox">
      <stop offset="0" stop-color="#eeebe1"/>
      <stop offset="1" stop-color="#d1a982"/>
    </linearGradient>
    <linearGradient id="linear-gradient-4" x1="-1.434" y1="1.756" x2="0.936" y2="0.171" xlink:href="#linear-gradient-3"/>
    <linearGradient id="linear-gradient-5" x1="-9.576" y1="6.473" x2="1.255" y2="0.052" xlink:href="#linear-gradient-3"/>
    <linearGradient id="linear-gradient-6" x1="0.418" y1="-0.541" x2="0.588" y2="1.74" gradientUnits="objectBoundingBox">
      <stop offset="0" stop-color="#0d0453"/>
      <stop offset="1" stop-color="#191753"/>
    </linearGradient>
    <linearGradient id="linear-gradient-7" x1="0.423" y1="-0.452" x2="0.606" y2="1.91" gradientUnits="objectBoundingBox">
      <stop offset="0" stop-color="#140b55"/>
      <stop offset="1" stop-color="#191753"/>
    </linearGradient>
    <linearGradient id="linear-gradient-8" x1="0.5" y1="-0.487" x2="0.5" y2="0.893" gradientUnits="objectBoundingBox">
      <stop offset="0" stop-color="#2d17d4"/>
      <stop offset="1" stop-color="#191753"/>
    </linearGradient>
    <linearGradient id="linear-gradient-9" x1="0.5" y1="-0.487" x2="0.5" y2="0.893" gradientUnits="objectBoundingBox">
      <stop offset="0" stop-color="#bcc7fc"/>
      <stop offset="1" stop-color="#513aff"/>
    </linearGradient>
    <linearGradient id="linear-gradient-10" x1="0.5" y1="-0.487" x2="0.5" y2="0.893" gradientUnits="objectBoundingBox">
      <stop offset="0" stop-color="#d7ddfd"/>
      <stop offset="1" stop-color="#8e83ed"/>
    </linearGradient>
  </defs>
  <g id="Overview_Illustration" data-name="Overview Illustration" transform="translate(-1388 -453)">
    <rect id="Rectangle_512" data-name="Rectangle 512" width="360" height="129" rx="10" transform="translate(1388 453)" fill="#7e22ce"/>
    <g id="Group_2769" data-name="Group 2769" transform="translate(1565.942 531.853)">
      <rect id="Rectangle_513" data-name="Rectangle 513" width="3.401" height="25.568" transform="translate(16.212 0)" fill="#fff"/>
      <rect id="Rectangle_514" data-name="Rectangle 514" width="3.413" height="11.237" transform="translate(0 14.331)" fill="#191753"/>
      <rect id="Rectangle_515" data-name="Rectangle 515" width="3.43" height="17.183" transform="translate(8.276 8.385)" fill="#efc343"/>
    </g>
    <g id="Group_2772" data-name="Group 2772" transform="translate(1593.476 490.509)">
      <path id="Path_1450" data-name="Path 1450" d="M-405.48,234.026s-12.491,14.781-13.3,15.476,5.331,12.169,5.331,12.169,14.139-1.39,12.981-13.328S-405.48,234.026-405.48,234.026Z" transform="translate(446.381 -203.653)" fill="url(#linear-gradient)"/>
      <path id="Path_1451" data-name="Path 1451" d="M-461.119,229.946s-7.03-4-22.332-5.408-20.479,2.88-21.776,4.124,4.2,36.214,3.77,45.406a100.454,100.454,0,0,1-1.73,15.141h38.171s-1.622-22.927-2.057-31.795S-461.119,239.57-461.119,229.946Z" transform="translate(546.129 -198.289)" fill="url(#linear-gradient-2)"/>
      <path id="Path_1452" data-name="Path 1452" d="M-472,219c0,1.628,3.291,3.158,7.352,3.416s7.35-.853,7.35-2.481-3.291-3.158-7.352-3.416S-472,217.372-472,219Z" transform="translate(527.236 -194.02)" fill="#fff"/>
      <g id="Group_2771" data-name="Group 2771" transform="translate(55.381 12.352)">
        <path id="Path_1453" data-name="Path 1453" d="M-457.787,194.057s-.649,10,1.677,14.6l-6.543,3.352-5.948-4.273-.973-10.652Z" transform="translate(469.575 -194.057)" fill="url(#linear-gradient-3)"/>
        <path id="Path_1454" data-name="Path 1454" d="M-469.576,197.085l11.789-3.028s-.649,10,1.677,14.6l-1.523.78c-2.239-2.545-1.445-7.571-2.411-6.393-4.087,4.985-8.445,5.91-8.809,1.933l-.51-5.577Z" transform="translate(469.576 -194.057)" fill="#c39a77"/>
      </g>
      <path id="Path_1455" data-name="Path 1455" d="M-465.3,182.1c.375,4.306,1.615,9.876,5.35,9.89,4.273.021,8.566-6.071,8.118-11.15s-3.827-8.915-7.547-8.568S-465.739,177.025-465.3,182.1Z" transform="translate(518.735 -169.733)" fill="url(#linear-gradient-4)"/>
      <path id="Path_1456" data-name="Path 1456" d="M-469.523,193.588c-.192,1.29.273,2.434,1.037,2.554s1.54-.828,1.732-2.119-.273-2.434-1.037-2.554S-469.332,192.3-469.523,193.588Z" transform="translate(535.552 -180.278)" fill="url(#linear-gradient-5)"/>
      <path id="Path_1457" data-name="Path 1457" d="M-454.467,178.013c-.523.243-.787,1.129-.989,1.978-.089.377-1.673-3.131-1.722-3.131s.1-2.464-.316-2.778-.69-.253-1.978.554a8.1,8.1,0,0,1-5,1.5c-2.675-.047-3.292-1.626-3.292-1.626a8.631,8.631,0,0,0-.4,1.6s-3.64-3.542-1.643-6.7c2.294-3.634,8.077-.3,8.077-.3s-1.627-2.617.414-2.432c1.9.172,2.9,2.825,2.9,2.825s.98-1.558,1.53-1.168-.047,1.9-.047,1.9,7.145-1.5,3.361,8.036C-453.574,178.268-453.789,177.7-454.467,178.013Z" transform="translate(521.688 -166.661)" fill="#191753"/>
      <path id="Path_1458" data-name="Path 1458" d="M-474.15,228.63a2.722,2.722,0,0,1-.824-1.784c-.138-1.235-.687-2.278-1.126-2.278a15.886,15.886,0,0,0-2.294.633s4.64-2.307,6.543-3.352.5-2.611-1.012-3.026l-.072-.741s2.28.481,2.637,1.936,2.423,1.97,2.423,2.685C-467.877,224.576-471.048,227.749-474.15,228.63Z" transform="translate(540.698 -194.899)" fill="url(#linear-gradient-6)"/>
      <path id="Path_1459" data-name="Path 1459" d="M-454.993,220.76c.213-.682,1.329-.624,1.9-2.01.2-.485,1.064-.843,1.481-1.029.014.151.029.559.043.712-.691.515-.966,1.408.21,2.294,1.851,1.4,5.948,4.273,5.948,4.273a15.892,15.892,0,0,0-2.177-.971c-.434-.066-1.132.885-1.452,2.086a2.723,2.723,0,0,1-1.08,1.642C-453.057,226.431-455.514,222.432-454.993,220.76Z" transform="translate(507.715 -194.7)" fill="url(#linear-gradient-7)"/>
      <path id="Path_1460" data-name="Path 1460" d="M-458.657,194a5.386,5.386,0,0,1,1.471.734c1.874-.806,2.258-8.1,2.258-8.1s2.75-.542,2.333.958a34.693,34.693,0,0,0-.491,5.512c-1.711,6.116-5.5,8.971-7.891,9-1.99.026-4.131-3.674-4.4-5.964S-462.224,192.989-458.657,194Z" transform="translate(519.508 -177.579)" fill="#191753"/>
      <path id="Path_1461" data-name="Path 1461" d="M-480.4,235.2s-5.526-2.065-9.361,10.319c-2.482,8.013-10.082,12.055-24.111,12.822l3.011,10.858h17.407s10.654,2.833,15.606-8.333S-475,236.531-480.4,235.2Z" transform="translate(563.874 -204.225)" fill="url(#linear-gradient-8)"/>
      <ellipse id="Ellipse_103" data-name="Ellipse 103" cx="0.385" cy="0.675" rx="0.385" ry="0.675" transform="translate(60.008 12.916)" fill="#191753"/>
      <path id="Path_1462" data-name="Path 1462" d="M-439.963,196.194c0,.373-.172.675-.385.675s-.385-.3-.385-.675.172-.675.385-.675S-439.963,195.82-439.963,196.194Z" transform="translate(495.806 -182.508)" fill="#191753"/>
      <path id="Path_1463" data-name="Path 1463" d="M-449.191,208.533a1.205,1.205,0,0,0,.644-.185,2.586,2.586,0,0,0,.928-1.493.188.188,0,0,0-.026-.141.187.187,0,0,0-.118-.082.188.188,0,0,0-.223.143,2.252,2.252,0,0,1-.76,1.254.88.88,0,0,1-.712.093.187.187,0,0,0-.143.02.188.188,0,0,0-.086.116.188.188,0,0,0,.136.229,1.449,1.449,0,0,0,.359.047Z" transform="translate(507.495 -188.608)" fill="#d3ad89"/>
      <path id="Path_1464" data-name="Path 1464" d="M-404,249.056l13.565,27.131a1,1,0,0,1-.044.97,1,1,0,0,1-.848.473h-44.163a1,1,0,0,1-.892-.554l-14.146-28.512a1,1,0,0,1,.047-.97,1,1,0,0,1,.85-.469l42.815.184A3.165,3.165,0,0,1-404,249.056Z" transform="translate(450.628 -210.846)" fill="url(#linear-gradient-9)"/>
      <path id="Path_1465" data-name="Path 1465" d="M-476.668,233.193a1.563,1.563,0,0,0,.277-.025c4.546-.813,5.835-6.71,5.847-6.77a.188.188,0,0,0-.146-.222.191.191,0,0,0-.222.146c-.012.057-1.25,5.709-5.545,6.477a1.1,1.1,0,0,1-1.226-.639,3.286,3.286,0,0,1-.23-.895,3.034,3.034,0,0,0-1.216-2.064.188.188,0,0,0-.26.051.188.188,0,0,0,.051.261,2.7,2.7,0,0,1,1.051,1.794,3.668,3.668,0,0,0,.258,1A1.466,1.466,0,0,0-476.668,233.193Z" transform="translate(543.825 -199.341)" fill="#f8fafb"/>
      <path id="Path_1466" data-name="Path 1466" d="M-445.359,231.8a1.035,1.035,0,0,0,.48-.127,3.15,3.15,0,0,0,1.273-2.032c.36-1.381,1.008-1.656,1.015-1.662a.189.189,0,0,0,.106-.243.187.187,0,0,0-.237-.109c-.034.012-.831.324-1.245,1.916a2.84,2.84,0,0,1-1.085,1.794.562.562,0,0,1-.461.057c-.493-.176-4.255-4.51-4.035-7.145a.188.188,0,0,0-.172-.2.188.188,0,0,0-.137.044.188.188,0,0,0-.066.128c-.227,2.748,3.6,7.286,4.284,7.532a.846.846,0,0,0,.279.051Z" transform="translate(502.462 -198.172)" fill="#f8fafb"/>
      <path id="Path_1467" data-name="Path 1467" d="M-459.727,257.589l.055-.169a.189.189,0,0,0,0-.106c-.091-.831-.511-15.762-.385-16.457a9.566,9.566,0,0,1,2.044-2.7.188.188,0,0,0,.055-.133.188.188,0,0,0-.055-.133.19.19,0,0,0-.266,0c-.2.2-1.987,2.009-2.148,2.894-.092.5.033,5.618.116,8.624.158,5.645.2,7.35.283,7.88l0,.012h.006c.033.215.072.225.126.237Zm-.125-.225Z" transform="translate(522.693 -205.75)" fill="#f8fafb"/>
      <path id="Path_1468" data-name="Path 1468" d="M-450.989,261.832a.188.188,0,0,0,.184-.15c1.669-8.083,3.659-17.739,3.659-17.84a.188.188,0,0,0-.188-.188.188.188,0,0,0-.187.169c-.055.341-2.411,11.77-3.652,17.782a.187.187,0,0,0,.027.142.188.188,0,0,0,.119.081.182.182,0,0,0,.038,0Zm3.467-17.99Z" transform="translate(507.697 -208.941)" fill="#f8fafb"/>
      <path id="Path_1469" data-name="Path 1469" d="M-451.775,240.32a1.384,1.384,0,0,0,.206-.01.187.187,0,0,0,.127-.067.187.187,0,0,0,.042-.138.184.184,0,0,0-.066-.128.184.184,0,0,0-.139-.041,1.907,1.907,0,0,1-1.657-.72,2.972,2.972,0,0,1-.522-2.662.188.188,0,0,0-.132-.231.188.188,0,0,0-.23.133,3.351,3.351,0,0,0,.6,3A2.317,2.317,0,0,0-451.775,240.32Z" transform="translate(513.348 -204.912)" fill="#f8fafb"/>
      <path id="Path_1470" data-name="Path 1470" d="M-378.61,283.036a1.575,1.575,0,0,0,1.289-.554h0c.621-.8.191-2.18-.959-3.071s-2.591-.964-3.214-.162a1.617,1.617,0,0,0-.177,1.537,3.314,3.314,0,0,0,1.137,1.534A3.236,3.236,0,0,0-378.61,283.036Zm.991-.787c-.495.638-1.7.535-2.69-.229a2.94,2.94,0,0,1-1.01-1.355,1.257,1.257,0,0,1,.118-1.187c.495-.639,1.7-.535,2.69.229s1.387,1.905.892,2.544Z" transform="translate(406.302 -228.18)" fill="#f8fafb"/>
    </g>
    <g id="Group_2773" data-name="Group 2773" transform="translate(1689.858 508.995)" opacity="0.59">
      <path id="Path_1471" data-name="Path 1471" d="M-508.157,173.848c-1.3,1.82-3.97,5.706-4.686,6.748-.036.05-.063.091-.086.127s-.041.059-.055.079a.063.063,0,0,1-.013.018l-.018.032c-.009,0-.009.009-.009.009v-8.545a8.5,8.5,0,0,1,4.866,1.531Z" transform="translate(521.584 -172.314)" fill="#191753"/>
      <path id="Path_1472" data-name="Path 1472" d="M-516.932,180.859a8.545,8.545,0,0,1-8.545,8.545,8.545,8.545,0,0,1-8.545-8.545,8.545,8.545,0,0,1,8.545-8.545h.018v8.545s0,0,.009-.009l.018-.032a.061.061,0,0,0,.013-.018l.055-.079.086-.127c.712-1.043,3.385-4.931,4.686-6.748a.122.122,0,0,1,.028.022,8.519,8.519,0,0,1,3.632,6.991Z" transform="translate(534.022 -172.314)" fill="#ffd764"/>
      <path id="Path_1473" data-name="Path 1473" d="M-525.459,172.316v8.545h-8.562a8.545,8.545,0,0,1,8.545-8.545Z" transform="translate(534.022 -172.314)" fill="#ff4141"/>
    </g>
    <path id="Union_12" data-name="Union 12" d="M-4437.872,36.232l.043-.024h0a8.885,8.885,0,0,0,4.678-2.555,10.82,10.82,0,0,0,1.785-3.018,12.27,12.27,0,0,0,.726-4.424V16.438c-3.742,2.176-16.327,3.059-23.947,2.98-13.233-.135-18.989-7.414-30.055-12.237-15.328-8.922-24.2-9.778-44.21-1.172-13.034,5.6-29.135,3.28-45.538.958-14.748-2.086-29.741-4.174-42.969-.5-14.163,3.93-17.071,10.931-10.765,18.822,3.34,4.179-4.395,3.583-25.664,3.821-14.643.165-20.214,7.071-20.214,7.071h184.847v.053Z" transform="translate(6155.527 545.684)" fill="#40e5d4"/>
    <path id="Union_12_-_Outline" data-name="Union 12 - Outline" d="M-4437.743,36.732h-51.913v-.053h-185.393l.657-.814a16.525,16.525,0,0,1,4.767-3.6,28.333,28.333,0,0,1,6.375-2.467,39.476,39.476,0,0,1,9.456-1.19c2.84-.032,5.475-.049,7.8-.064,5.988-.039,10.314-.067,13.354-.293,2.853-.212,4.441-.615,4.719-1.2.175-.367-.227-.992-.595-1.452a15.541,15.541,0,0,1-2.886-5.209,8.251,8.251,0,0,1-.007-4.938,10.78,10.78,0,0,1,4.453-5.411,32.106,32.106,0,0,1,9.462-4.058,61.749,61.749,0,0,1,16.639-2.028c8.739,0,17.786,1.28,26.534,2.517l.277.039c8.576,1.214,17.444,2.47,25.586,2.47,7.688,0,14.036-1.122,19.408-3.431,9.862-4.241,16.712-6.05,22.906-6.05a31.712,31.712,0,0,1,10.536,1.849,64.515,64.515,0,0,1,11.192,5.386,80.741,80.741,0,0,1,9.626,5.2c5.88,3.546,11.435,6.895,20.207,6.984.306,0,.623,0,.943,0h.009c8.591,0,19.48-1.022,22.738-2.917l.751-.437V26.206a12.719,12.719,0,0,1-.756,4.6l0,.012a11.284,11.284,0,0,1-1.867,3.158l-.023.026a9.339,9.339,0,0,1-4.864,2.683Zm-50.913-1H-4438l.072-.014a8.343,8.343,0,0,0,4.4-2.4,10.294,10.294,0,0,0,1.688-2.86,11.722,11.722,0,0,0,.694-4.238V17.245c-2.323,1.006-6.309,1.619-9.407,1.965a125.277,125.277,0,0,1-13.083.713h-.009c-.323,0-.644,0-.954,0-9.044-.092-14.712-3.51-20.713-7.128a79.784,79.784,0,0,0-9.536-5.151l-.027-.012-.025-.015C-4493.687,2.494-4499.646.5-4506.144.5c-6.049,0-12.781,1.785-22.511,5.969-5.5,2.364-11.977,3.513-19.8,3.513-8.213,0-17.116-1.26-25.727-2.48l-.277-.039c-8.714-1.233-17.725-2.508-26.394-2.508a60.769,60.769,0,0,0-16.371,1.992,31.13,31.13,0,0,0-9.165,3.919,9.823,9.823,0,0,0-4.067,4.893c-.888,2.743.029,5.843,2.724,9.215.3.37,1.2,1.5.716,2.507-.928,1.944-6.209,1.979-18.97,2.062-2.324.015-4.958.032-7.8.064-7.425.083-12.423,1.953-15.308,3.506a18.923,18.923,0,0,0-3.712,2.565h184.148Z" transform="translate(6155.527 545.684)" fill="rgba(0,0,0,0)"/>
    <g id="Group_2774" data-name="Group 2774" transform="translate(1553.308 519.112)" opacity="0.36">
      <path id="Path_1477" data-name="Path 1477" d="M-410.659,184.975a.188.188,0,0,1-.187-.185.188.188,0,0,1,.185-.191c.117,0,10.486-.232,14.247-5.006a4.431,4.431,0,0,1-2.067-1.371,2.685,2.685,0,0,1-.207-3.6,2.661,2.661,0,0,1,3.1-.87c.593.324,1.454,1.279.572,4.019a6.422,6.422,0,0,1-.784,1.609,7.49,7.49,0,0,0,3.007-.007c4.777-.9,10.818-5.506,13.546-13.777a.187.187,0,0,1,.094-.109.188.188,0,0,1,.143-.01.187.187,0,0,1,.109.094.187.187,0,0,1,.01.144c-2.776,8.417-8.947,13.11-13.833,14.029a7.76,7.76,0,0,1-3.31-.032c-1.448,1.912-4.054,3.379-7.675,4.3a34.284,34.284,0,0,1-6.948.971Zm14.17-11.072a2.589,2.589,0,0,0-1.908.956,2.281,2.281,0,0,0,.207,3.124,4.1,4.1,0,0,0,2.014,1.292,6.11,6.11,0,0,0,.809-1.623c.584-1.813.441-3.117-.4-3.575a1.509,1.509,0,0,0-.726-.174Z" transform="translate(410.846 -165.329)" fill="#fff"/>
      <path id="Path_1478" data-name="Path 1478" d="M-340.191,167.9a.188.188,0,0,1-.187-.166l-.274-2.335a.188.188,0,0,1,.165-.208.189.189,0,0,1,.208.165l.274,2.335a.187.187,0,0,1-.039.139.188.188,0,0,1-.126.07Z" transform="translate(372.3 -165.18)" fill="#fff"/>
      <path id="Path_1479" data-name="Path 1479" d="M-344.25,167.332a.187.187,0,0,1-.15-.079.188.188,0,0,1,.037-.263c.112-.088,1.092-1.121,1.684-1.753a.188.188,0,0,1,.131-.06.188.188,0,0,1,.135.051.187.187,0,0,1,.06.131.187.187,0,0,1-.051.135c-.262.279-1.577,1.681-1.732,1.8a.185.185,0,0,1-.113.041Z" transform="translate(374.379 -165.177)" fill="#fff"/>
    </g>
    <g id="Group_2775" data-name="Group 2775" transform="translate(1570.347 477.417)">
      <path id="Path_1480" data-name="Path 1480" d="M-561.039,233.756a5.485,5.485,0,0,1-5.479-5.478,5.485,5.485,0,0,1,5.479-5.478,5.485,5.485,0,0,1,5.479,5.478A5.485,5.485,0,0,1-561.039,233.756Zm0-10.646a5.174,5.174,0,0,0-5.168,5.168,5.174,5.174,0,0,0,5.168,5.168,5.174,5.174,0,0,0,5.168-5.168,5.174,5.174,0,0,0-5.168-5.168Z" transform="translate(566.518 -222.799)" fill="#fff"/>
      <path id="Path_1481" data-name="Path 1481" d="M-554.488,235.822a1.945,1.945,0,0,1-.4-.041,1.531,1.531,0,0,1-1.229-1.017.158.158,0,0,1,.119-.184.158.158,0,0,1,.184.119,1.237,1.237,0,0,0,.988.779,1.624,1.624,0,0,0,1.685-.724.95.95,0,0,0,.222-.727c-.089-.479-.686-.87-1.318-1.287-.735-.483-1.5-.983-1.582-1.725a1.108,1.108,0,0,1,.411-1.1,1.488,1.488,0,0,1,1.428-.1.87.87,0,0,1,.562.686.158.158,0,0,1-.14.169.158.158,0,0,1-.169-.14.571.571,0,0,0-.38-.43,1.187,1.187,0,0,0-1.117.069.816.816,0,0,0-.286.816c.071.6.77,1.058,1.446,1.5s1.34.88,1.453,1.491a1.251,1.251,0,0,1-.275.964A1.968,1.968,0,0,1-554.488,235.822Z" transform="translate(559.987 -227.115)" fill="#fff"/>
      <path id="Path_1482" data-name="Path 1482" d="M-552.539,235.215h-.027a.158.158,0,0,1-.126-.18c.406-2.321-.521-7.042-.643-7.387a.158.158,0,0,1-.016-.13.158.158,0,0,1,.2-.1c.317.105,1.153,5.469.768,7.67a.158.158,0,0,1-.153.126Z" transform="translate(558.257 -225.693)" fill="#fff"/>
    </g>
    <path id="Path_1483" data-name="Path 1483" d="M-572.3,270.652a1.352,1.352,0,0,0,1.351-1.351,1.353,1.353,0,0,0-1.351-1.351,1.354,1.354,0,0,0-1.351,1.351A1.353,1.353,0,0,0-572.3,270.652Zm0-2.326a.976.976,0,0,1,.976.976.976.976,0,0,1-.976.976.976.976,0,0,1-.976-.976.977.977,0,0,1,.976-.976Z" transform="translate(2279.269 277.721)" fill="#fff"/>
    <path id="Path_1500" data-name="Path 1500" d="M-571.682,271.9a1.978,1.978,0,0,0,1.973-1.972,1.978,1.978,0,0,0-1.973-1.974,1.978,1.978,0,0,0-1.973,1.974A1.978,1.978,0,0,0-571.682,271.9Zm0-3.4a1.424,1.424,0,0,1,1.424,1.424,1.424,1.424,0,0,1-1.424,1.424,1.424,1.424,0,0,1-1.424-1.424A1.424,1.424,0,0,1-571.682,268.5Z" transform="translate(1961.666 285.508)" fill="#fff" opacity="0.5"/>
    <g id="Group_2778" data-name="Group 2778" transform="translate(1677.417 467.298)">
      <g id="Group_2777" data-name="Group 2777" transform="translate(0 0)">
        <g id="Group_2776" data-name="Group 2776">
          <path id="Path_1484" data-name="Path 1484" d="M-480.214,122.537a3.655,3.655,0,0,1-1.766-.333c-.266-.168-.3-.35-.289-.475.032-.258.336-.475.626-.618a1.18,1.18,0,0,1-.439-.191c-.188-.15-.259-.3-.207-.448.032-.093.132-.379,1.419-.382a10.581,10.581,0,0,1,3.023.437,2.663,2.663,0,0,0,.389-.17c.114-.063.3-.188.29-.313-.047-.407-.741-.5-.879-.511l-.07.02-.079-.084c-.079-.095-.22-.271,1.4-3.4a5.021,5.021,0,0,0-.063-5.3,3.877,3.877,0,0,0-3.81-1.575,3.853,3.853,0,0,0-3.086,2.365,4.811,4.811,0,0,0,.841,4.7,10.49,10.49,0,0,1,1.72,3.334.154.154,0,0,1-.109.187.153.153,0,0,1-.116-.015.153.153,0,0,1-.071-.093,10.39,10.39,0,0,0-1.668-3.227,5.114,5.114,0,0,1-.881-5,4.153,4.153,0,0,1,3.323-2.553,4.228,4.228,0,0,1,4.106,1.7,5.318,5.318,0,0,1,.087,5.618,18.574,18.574,0,0,0-1.4,3.035c.3.043.989.2,1.055.77.026.229-.124.436-.446.615-.041.023-.087.046-.135.068a.966.966,0,0,1,.513.47.573.573,0,0,1-.253.67A5.713,5.713,0,0,1-480.214,122.537Zm-.852-1.332c-.37.125-.876.385-.9.565-.008.066.089.139.148.176a5.953,5.953,0,0,0,4.442-.349c.211-.169.17-.285.158-.329-.051-.143-.279-.287-.633-.417a9.415,9.415,0,0,1-3.215.354Zm.021-.3a9.486,9.486,0,0,0,2.643-.218,10.358,10.358,0,0,0-1.424-.237,4.113,4.113,0,0,0-2.175.123.587.587,0,0,0,.108.108,1.631,1.631,0,0,0,.783.217A.146.146,0,0,1-481.045,120.9Z" transform="translate(487.987 -105.319)" fill="#ffd500"/>
          <path id="Path_1485" data-name="Path 1485" d="M-473.672,147.089h-.038c-1-.032-1.108-1.433-1.112-1.492a.153.153,0,0,1,.142-.164.158.158,0,0,1,.164.142c0,.012.1,1.187.817,1.208.695.036.989-.85,1.108-1.372h.158l.142.064C-472.526,146.519-473.014,147.089-473.672,147.089Z" transform="translate(481.958 -128.449)" fill="#ffd500"/>
          <path id="Path_1486" data-name="Path 1486" d="M-492.078,119.3a.159.159,0,0,1-.059-.012,4.684,4.684,0,0,0-1.914-.148.153.153,0,0,1-.116-.017.153.153,0,0,1-.07-.095.153.153,0,0,1,.017-.116.153.153,0,0,1,.095-.07,4.932,4.932,0,0,1,2.108.158.153.153,0,0,1,.079.2A.154.154,0,0,1-492.078,119.3Z" transform="translate(494.241 -111.615)" fill="#ffd500"/>
          <path id="Path_1487" data-name="Path 1487" d="M-489.06,104.822a.153.153,0,0,1-.113-.05,28.888,28.888,0,0,0-2.761-2.144.153.153,0,0,1-.063-.1.153.153,0,0,1,.025-.114.153.153,0,0,1,.1-.063.153.153,0,0,1,.114.025,28.156,28.156,0,0,1,2.811,2.188.153.153,0,0,1,.04.11.153.153,0,0,1-.05.106.154.154,0,0,1-.1.04Z" transform="translate(492.821 -101.214)" fill="#ffd500"/>
          <path id="Path_1488" data-name="Path 1488" d="M-476.185,101.578a.153.153,0,0,1-.138-.085,9.918,9.918,0,0,1-.377-2.066.153.153,0,0,1,.138-.167.153.153,0,0,1,.112.034.153.153,0,0,1,.055.1,9.736,9.736,0,0,0,.346,1.958.153.153,0,0,1,.009.117.153.153,0,0,1-.077.089.153.153,0,0,1-.068.016Z" transform="translate(483.145 -99.26)" fill="#ffd500"/>
          <path id="Path_1489" data-name="Path 1489" d="M-463.773,104.461a.146.146,0,0,1-.037,0,.153.153,0,0,1-.094-.07.153.153,0,0,1-.017-.116,9.909,9.909,0,0,1,1.266-1.865.153.153,0,0,1,.1-.056.153.153,0,0,1,.112.034.153.153,0,0,1,.022.215,9.575,9.575,0,0,0-1.208,1.746.154.154,0,0,1-.146.116Z" transform="translate(475.066 -101.214)" fill="#ffd500"/>
          <path id="Path_1490" data-name="Path 1490" d="M-457.458,117.235a.154.154,0,0,1-.138-.085.153.153,0,0,1,.068-.206,11.743,11.743,0,0,1,3.007-.842.154.154,0,0,1,.154.153.154.154,0,0,1-.154.153,11.37,11.37,0,0,0-2.871.809A.153.153,0,0,1-457.458,117.235Z" transform="translate(471.072 -109.913)" fill="#ffd500"/>
          <path id="Path_1491" data-name="Path 1491" d="M-473.537,126.354h-.013a.153.153,0,0,1-.1-.054.153.153,0,0,1-.036-.112c.121-1.491.258-5.528-.56-6.308a.358.358,0,0,0-.316-.112.445.445,0,0,0-.316.21c-.817,1.18.335,6.1.347,6.148a.153.153,0,0,1-.019.116.153.153,0,0,1-.1.068.154.154,0,0,1-.184-.114c-.049-.207-1.194-5.1-.3-6.392a.746.746,0,0,1,.529-.339.663.663,0,0,1,.564.194c1.09,1.04.672,6.33.654,6.555A.153.153,0,0,1-473.537,126.354Z" transform="translate(482.369 -112.035)" fill="#ffd500"/>
        </g>
        <path id="Path_1492" data-name="Path 1492" d="M-490.7,130.4a.153.153,0,0,1-.124-.062.153.153,0,0,1,.034-.214l1.575-1.145a.153.153,0,0,1,.114-.027.153.153,0,0,1,.1.061.153.153,0,0,1,.027.114.153.153,0,0,1-.061.1l-1.574,1.146A.158.158,0,0,1-490.7,130.4Z" transform="translate(492.096 -118.04)" fill="#ffd500"/>
        <path id="Path_1493" data-name="Path 1493" d="M-456.819,129.245a.151.151,0,0,1-.073-.018l-2.326-1.253a.153.153,0,0,1-.074-.091.153.153,0,0,1,.012-.116.153.153,0,0,1,.091-.074.153.153,0,0,1,.117.012l2.326,1.253a.153.153,0,0,1,.074.091.153.153,0,0,1-.012.117.153.153,0,0,1-.135.081Z" transform="translate(472.139 -117.24)" fill="#ffd500"/>
      </g>
      <path id="Path_1494" data-name="Path 1494" d="M-419.961,144.261a.153.153,0,0,1-.154-.153v-3.071a.154.154,0,0,1,.154-.154.154.154,0,0,1,.154.154v3.071a.154.154,0,0,1-.154.154Z" transform="translate(443.924 -125.587)" fill="#efc343"/>
      <path id="Path_1495" data-name="Path 1495" d="M-420.865,145.213h-2.844a.153.153,0,0,1-.153-.153.153.153,0,0,1,.044-.108.153.153,0,0,1,.108-.045h2.844a.153.153,0,0,1,.153.154.153.153,0,0,1-.045.108A.153.153,0,0,1-420.865,145.213Z" transform="translate(446.337 -128.131)" fill="#efc343"/>
      <path id="Path_1496" data-name="Path 1496" d="M-405.084,155.439a.614.614,0,0,1-.475-.225.616.616,0,0,1,.087-.865.616.616,0,0,1,.866.086h0a.616.616,0,0,1-.087.865A.612.612,0,0,1-405.084,155.439Zm0-.923a.308.308,0,0,0-.2.069.309.309,0,0,0-.043.434.31.31,0,0,0,.434.044.309.309,0,0,0,.043-.434.308.308,0,0,0-.239-.11Z" transform="translate(435.089 -134.015)" fill="#efc343"/>
    </g>
    <g id="Union_13" data-name="Union 13" opacity="0.09">
      <path id="Union_13-2" data-name="Union 13" d="M236.508,36.232l.044-.024h0a8.9,8.9,0,0,0,4.685-2.556,10.8,10.8,0,0,0,1.788-3.018,12.277,12.277,0,0,0,.727-4.424V16.438C240,18.615,227.4,19.5,219.766,19.419c-13.254-.136-19.017-7.414-30.1-12.238C174.31-1.74,165.428-2.6,145.381,6.013c-13.055,5.6-29.182,3.28-45.612.959C85,4.885,69.981,2.8,56.732,6.469,42.547,10.4,39.634,17.4,45.949,25.286c3.345,4.179-4.4,3.583-25.706,3.822C5.577,29.273,0,36.179,0,36.179H185.14v.053Z" transform="translate(1481.136 545.684)" fill="url(#linear-gradient-10)"/>
      <path id="Union_13_-_Outline" data-name="Union 13 - Outline" d="M236.635,36.732h-52v-.053H-1.05l.658-.814a16.538,16.538,0,0,1,4.774-3.6A28.4,28.4,0,0,1,10.767,29.8a39.6,39.6,0,0,1,9.471-1.19c2.845-.032,5.486-.049,7.815-.064,6-.039,10.331-.068,13.375-.293,2.857-.212,4.447-.616,4.726-1.2.175-.366-.228-.991-.6-1.451a15.536,15.536,0,0,1-2.89-5.207,8.24,8.24,0,0,1-.01-4.936,10.777,10.777,0,0,1,4.459-5.412A32.161,32.161,0,0,1,56.6,5.987,61.935,61.935,0,0,1,73.262,3.959c8.756,0,17.816,1.28,26.577,2.518l.285.04c8.587,1.213,17.466,2.468,25.62,2.468,7.7,0,14.059-1.123,19.44-3.432C155.062,1.311,161.924-.5,168.128-.5A31.808,31.808,0,0,1,178.68,1.35a64.683,64.683,0,0,1,11.21,5.385,80.929,80.929,0,0,1,9.644,5.2c6.145,3.7,11.452,6.894,20.237,6.984.307,0,.625,0,.945,0,8.609,0,19.52-1.023,22.784-2.918l.751-.436V26.2a12.729,12.729,0,0,1-.757,4.6l0,.012a11.28,11.28,0,0,1-1.871,3.158L241.6,34a9.356,9.356,0,0,1-4.872,2.684Zm-51-1h50.743l.072-.014a8.362,8.362,0,0,0,4.41-2.4,10.283,10.283,0,0,0,1.692-2.859,11.733,11.733,0,0,0,.7-4.238V17.244c-2.328,1.007-6.323,1.62-9.428,1.967a125.762,125.762,0,0,1-13.107.713c-.324,0-.645,0-.956,0-9.057-.093-14.733-3.51-20.743-7.127a79.986,79.986,0,0,0-9.554-5.152l-.027-.012-.025-.015C180.6,2.5,174.636.5,168.128.5c-6.06,0-12.8,1.786-22.549,5.972-5.508,2.363-12,3.512-19.835,3.513-8.224,0-17.138-1.259-25.76-2.478l-.285-.04C90.972,6.234,81.948,4.959,73.262,4.959a60.957,60.957,0,0,0-16.4,1.992,31.193,31.193,0,0,0-9.182,3.919,9.817,9.817,0,0,0-4.073,4.894c-.887,2.741.031,5.84,2.729,9.21.3.37,1.2,1.5.718,2.506-.927,1.945-6.217,1.98-19,2.063-2.329.015-4.968.033-7.811.064-7.438.083-12.444,1.953-15.334,3.506A18.965,18.965,0,0,0,1.2,35.679H185.64Z" transform="translate(1481.136 545.684)" fill="rgba(0,0,0,0)"/>
    </g>
    <path id="Path_1476" data-name="Path 1476" d="M-550.517,350.532h.845c1.233-.586,3.784-.837,7.493-1.208,2.707-.271,6.086-.606,10.012-1.187,4.374-.646,7.178-1.97,8.345-3.945,2.385-4.015-2.819-9.222-3.043-9.443-2.927-4.17-2.528-7.516,1.166-9.659,10.086-5.839,43.225-2.166,76.484,12.616,11.179,4.967,15.27,2.69,21.46-.752,6.33-3.523,15.014-8.355,36.19-8,19.71.316,40.5,7.569,61.952,21.583h.9a162.26,162.26,0,0,0-14.637-8.624c-16.6-8.606-32.818-13.092-48.19-13.337-21.385-.356-30.162,4.531-36.563,8.09-6.213,3.453-9.96,5.543-20.794.732a187.933,187.933,0,0,0-47.046-14.075c-13.915-2.08-24.892-1.539-30.111,1.484-3.9,2.265-4.352,5.764-1.286,10.127.074.079,5.286,5.288,3.014,9.123-1.1,1.849-3.769,3.1-7.948,3.714-3.911.576-7.279.912-9.975,1.177C-546.57,349.379-549.366,349.66-550.517,350.532Z" transform="translate(2043.906 231.384)" fill="#f8fafb" opacity="0.1"/>
    <path id="Path_1475" data-name="Path 1475" d="M-493.1,367.51s-18.862-22.451-2.461-27.771c25.176-8.168,44.749,26.477,69.194,16.978s59.544,10.84,59.544,10.84S-503.487,367.51-493.1,367.51Z" transform="translate(2072.307 214.377)" fill="#1cc9ff"/>
  </g>
</svg>
